<svg width="22" height="20" viewBox="0 0 22 20" fill="none" xmlns="http://www.w3.org/2000/svg">
<g clip-path="url(#clip0_1_146)">
<path fill-rule="evenodd" clip-rule="evenodd" d="M2.2618 0.627629C2.70385 0.225764 3.30341 0 3.92855 0H13.3571C13.5655 0 13.7654 0.0752549 13.9127 0.20921L20.1985 5.9235C20.3457 6.05744 20.4286 6.23913 20.4286 6.42857V17.8571C20.4286 18.4254 20.1803 18.9706 19.7382 19.3724C19.2962 19.7743 18.6965 20 18.0714 20H3.92855C3.30339 20 2.70385 19.7743 2.2618 19.3724C1.81976 18.9706 1.57141 18.4254 1.57141 17.8571V2.14286C1.57141 1.57454 1.81976 1.02949 2.2618 0.627629ZM11.2938 15.6313L11.4571 15.4829C11.6401 15.3743 11.7967 15.2319 11.9162 15.0656L14.8295 12.4171C15.1104 12.1617 15.1944 11.7777 15.0424 11.444C14.8904 11.1104 14.5322 10.8929 14.135 10.8929H12.1707V5.71429C12.1707 4.92531 11.4672 4.28571 10.5993 4.28571C9.73142 4.28571 9.02787 4.92531 9.02787 5.71429V10.8929H7.06357C6.66633 10.8929 6.3082 11.1104 6.1562 11.444C6.00418 11.7777 6.0882 12.1617 6.36909 12.4171L9.28246 15.0656C9.4019 15.2319 9.55846 15.3743 9.74144 15.4829L9.90481 15.6313C10.089 15.7989 10.3388 15.8929 10.5993 15.8929C10.8598 15.8929 11.1096 15.7989 11.2938 15.6313Z" fill="#FFF8F8"/>
</g>
<defs>
<clipPath id="clip0_1_146">
<rect width="22" height="20" fill="white"/>
</clipPath>
</defs>
</svg>
