<svg width="42" height="40" viewBox="0 0 42 40" fill="none" xmlns="http://www.w3.org/2000/svg">
<g clip-path="url(#clip0_1_127)">
<path fill-rule="evenodd" clip-rule="evenodd" d="M4.31802 1.25526C5.16192 0.451529 6.30654 0 7.5 0H25.5C25.8978 0 26.2794 0.15051 26.5606 0.41842L38.5608 11.847C38.8419 12.1149 39 12.4783 39 12.8571V35.7143C39 36.8509 38.526 37.9411 37.6821 38.7449C36.8382 39.5486 35.6934 40 34.5 40H7.5C6.30651 40 5.16192 39.5486 4.31802 38.7449C3.47412 37.9411 3 36.8509 3 35.7143V4.28571C3 3.14909 3.47412 2.05898 4.31802 1.25526ZM21.5609 31.2626L21.8727 30.9657C22.2221 30.7486 22.521 30.4637 22.7491 30.1311L28.3108 24.8341C28.8471 24.3234 29.0075 23.5553 28.7173 22.8881C28.4271 22.2208 27.7434 21.7857 26.985 21.7857H23.2351V11.4286C23.2351 9.85063 21.8919 8.57143 20.2351 8.57143C18.5782 8.57143 17.2351 9.85063 17.2351 11.4286V21.7857H13.485C12.7267 21.7857 12.043 22.2208 11.7528 22.8881C11.4625 23.5553 11.623 24.3234 12.1592 24.8341L17.7211 30.1311C17.9491 30.4637 18.248 30.7486 18.5973 30.9657L18.9092 31.2626C19.2608 31.5977 19.7377 31.7857 20.235 31.7857C20.7323 31.7857 21.2092 31.5977 21.5609 31.2626Z" fill="#FFF8F8"/>
</g>
<defs>
<clipPath id="clip0_1_127">
<rect width="42" height="40" fill="white"/>
</clipPath>
</defs>
</svg>
