<svg width="42" height="40" viewBox="0 0 42 40" fill="none" xmlns="http://www.w3.org/2000/svg">
<path fill-rule="evenodd" clip-rule="evenodd" d="M4.31802 1.25526C5.16192 0.451529 6.30654 0 7.5 0H25.5C25.8978 0 26.2794 0.15051 26.5606 0.41842L38.5608 11.847C38.8419 12.1149 39 12.4783 39 12.8571V35.7143C39 36.8509 38.526 37.9411 37.6821 38.7449C36.8382 39.5486 35.6934 40 34.5 40H7.5C6.30651 40 5.16192 39.5486 4.31802 38.7449C3.47412 37.9411 3 36.8509 3 35.7143V4.28571C3 3.14909 3.47412 2.05898 4.31802 1.25526ZM21.5609 9.80874L21.8727 10.1057C22.2221 10.3229 22.521 10.6076 22.7491 10.9404L28.3108 16.2373C28.8471 16.748 29.0075 17.5161 28.7173 18.1834C28.4271 18.8506 27.7434 19.2857 26.985 19.2857H23.2351V29.6429C23.2351 31.2209 21.8919 32.5 20.2351 32.5C18.5782 32.5 17.2351 31.2209 17.2351 29.6429V19.2857H13.485C12.7267 19.2857 12.043 18.8506 11.7528 18.1834C11.4625 17.5161 11.623 16.748 12.1592 16.2373L17.7211 10.9403C17.9491 10.6076 18.248 10.3229 18.5973 10.1057L18.9092 9.80874C19.2608 9.47386 19.7377 9.28571 20.235 9.28571C20.7323 9.28571 21.2092 9.47386 21.5609 9.80874Z" fill="#FFF8F8"/>
</svg>
